HIERARCHY
ROOT Pelvis
{
	OFFSET 0.000000 0.000000 0.000000
	CHANNELS 6 Xposition Yposition Zposition Xrotation Yrotation Zrotation
	JOINT LeftUpLeg_virtual
	{
		OFFSET 0.000000 0.000000 0.000000
		CHANNELS 3 Xrotation Yrotation Zrotation
		JOINT LeftUpLeg
		{
			OFFSET 18.735201 -5.666702 -4.541200
			CHANNELS 3 Xrotation Yrotation Zrotation
			JOINT LeftLeg
			{
				OFFSET -0.021200 -31.938179 0.493100
				CHANNELS 3 Xrotation Yrotation Zrotation
				JOINT LeftFoot
				{
					OFFSET 0.021200 -31.938179 -4.336299
					CHANNELS 3 Xrotation Yrotation Zrotation
					JOINT LeftToeBase
					{
						OFFSET 0.943001 -26.722000 15.023500
						CHANNELS 3 Xrotation Yrotation Zrotation
						End Site
						{
							OFFSET 0 0 0
						}
					}
				}
			}
		}
	}
	JOINT RightUpLeg_virtual
	{
		OFFSET 0.000000 0.000000 0.000000
		CHANNELS 3 Xrotation Yrotation Zrotation
		JOINT RightUpLeg
		{
			OFFSET -18.735201 -5.666702 -4.541200
			CHANNELS 3 Xrotation Yrotation Zrotation
			JOINT RightLeg
			{
				OFFSET 0.018946 -31.938133 0.493100
				CHANNELS 3 Xrotation Yrotation Zrotation
				JOINT RightFoot
				{
					OFFSET -0.018946 -31.938126 -4.336299
					CHANNELS 3 Xrotation Yrotation Zrotation
					JOINT RightToeBase
					{
						OFFSET -0.943001 -26.722004 15.023500
						CHANNELS 3 Xrotation Yrotation Zrotation
						End Site
						{
							OFFSET 0 0 0
						}
					}
				}
			}
		}
	}
	JOINT Hips_virtual
	{
		OFFSET 0.000000 0.000000 0.000000
		CHANNELS 3 Xrotation Yrotation Zrotation
		JOINT Hips
		{
			OFFSET -0.000000 -0.000000 -0.000000
			CHANNELS 3 Xrotation Yrotation Zrotation
			JOINT Spine
			{
				OFFSET 0.000000 10.199997 -0.299500
				CHANNELS 3 Xrotation Yrotation Zrotation
				JOINT Spine1
				{
					OFFSET 0.000000 11.900002 -1.516600
					CHANNELS 3 Xrotation Yrotation Zrotation
					JOINT Spine2
					{
						OFFSET 0.000000 13.600006 -2.842500
						CHANNELS 3 Xrotation Yrotation Zrotation
						JOINT Neck_virtual
						{
							OFFSET 0.000000 0.000000 0.000000
							CHANNELS 3 Xrotation Yrotation Zrotation
							JOINT Neck
							{
								OFFSET 0.000000 9.624100 -2.890100
								CHANNELS 3 Xrotation Yrotation Zrotation
								JOINT Head
								{
									OFFSET 0.000000 14.068802 -1.351900
									CHANNELS 3 Xrotation Yrotation Zrotation
									End Site
									{
										OFFSET 0 0 0
									}
								}
							}
						}
						JOINT LeftShoulder_virtual
						{
							OFFSET 0.000000 0.000000 0.000000
							CHANNELS 3 Xrotation Yrotation Zrotation
							JOINT LeftShoulder
							{
								OFFSET 15.263000 10.923401 -0.547700
								CHANNELS 3 Xrotation Yrotation Zrotation
								JOINT LeftArm
								{
									OFFSET 25.438599 -2.830597 -13.032500
									CHANNELS 3 Xrotation Yrotation Zrotation
									JOINT LeftForeArm
									{
										OFFSET 29.960503 0.000000 0.000000
										CHANNELS 3 Xrotation Yrotation Zrotation
										JOINT LeftHand
										{
											OFFSET 27.849251 0.000000 0.000000
											CHANNELS 3 Xrotation Yrotation Zrotation
											End Site
											{
												OFFSET 0 0 0
											}
										}
									}
								}
							}
						}
						JOINT RightShoulder_virtual
						{
							OFFSET 0.000000 0.000000 0.000000
							CHANNELS 3 Xrotation Yrotation Zrotation
							JOINT RightShoulder
							{
								OFFSET -15.263000 10.923401 -0.547700
								CHANNELS 3 Xrotation Yrotation Zrotation
								JOINT RightArm
								{
									OFFSET -25.438599 -2.830597 -13.032500
									CHANNELS 3 Xrotation Yrotation Zrotation
									JOINT RightForeArm
									{
										OFFSET -29.960503 0.000000 0.000000
										CHANNELS 3 Xrotation Yrotation Zrotation
										JOINT RightHand
										{
											OFFSET -27.849251 0.000000 0.000000
											CHANNELS 3 Xrotation Yrotation Zrotation
											End Site
											{
												OFFSET 0 0 0
											}
										}
									}
								}
							}
						}
					}
				}
			}
		}
	}
}
MOTION
Frames: 13
Frame Time: 0.03333333
-8.519957 84.449539 -0.091948 0.000000 0.000000 0.000000 -0.678740 -44.499335 4.386192 -46.115176 -3.672534 19.220586 47.166462 -5.716544 -3.339098 -4.618830 -4.304650 -14.360396 0.000000 0.000000 0.000000 11.733962 -45.081345 2.577152 -21.359344 -18.030757 -20.922498 40.456317 4.947552 1.927248 -14.336958 -0.626779 17.788741 0.000000 0.000000 0.000000 1.713899 -23.152149 0.288769 -0.215961 -39.034579 -1.938183 4.952773 6.745137 -1.849935 0.878716 4.634737 -0.965101 0.000000 0.000000 0.000000 -1.136818 5.421659 -1.665339 -2.715798 3.398548 -0.503386 0.000000 0.000000 0.000000 -10.223197 5.167316 -2.171294 -10.773011 8.176061 -9.972738 -5.437411 -7.889816 -42.560924 3.409484 -43.154607 0.760097 0.000000 0.000000 0.000000 -0.350969 4.129599 -0.446425 -3.944134 14.075236 5.165017 2.194839 9.980864 47.146685 2.543167 61.582925 4.829209 0.000000 0.000000 0.000000 
-5.416193 84.962036 0.723261 0.000000 0.000000 0.000000 -0.731983 -45.153465 4.619727 -45.782949 -4.089443 19.190554 46.129889 -6.335372 -4.001452 -5.053291 -4.576379 -15.924615 0.000000 0.000000 0.000000 12.261355 -45.343392 2.495662 -20.397697 -18.200345 -20.979107 40.729145 4.702169 1.601940 -13.890876 -0.565454 17.117945 0.000000 0.000000 0.000000 0.146977 -23.441196 -0.804784 9.152121 -39.388591 5.570619 4.330368 6.806637 -2.925137 0.577184 4.980110 -1.289131 0.000000 0.000000 0.000000 -1.424329 5.692511 -1.974260 -2.782115 3.813664 -0.292448 0.000000 0.000000 0.000000 -11.622391 5.493070 -2.360129 -11.117315 10.541740 -9.582365 -0.740592 -9.891954 -42.837154 8.424413 -43.747191 3.539581 0.000000 0.000000 0.000000 -0.440989 4.676825 -0.974341 -2.951523 14.262359 5.043202 9.071280 8.209152 45.994726 3.290933 63.479655 5.368655 0.000000 0.000000 0.000000 
-5.667594 85.498177 0.876604 0.000000 0.000000 0.000000 -1.040160 -43.430871 5.203398 -46.195018 -4.019858 19.943251 47.153379 -6.360018 -4.147684 -3.645470 -4.691503 -16.384259 0.000000 0.000000 0.000000 12.488828 -44.275311 2.710870 -20.179534 -17.913375 -20.630697 39.304491 5.219797 1.565591 -15.160956 -0.227806 17.215085 0.000000 0.000000 0.000000 3.220659 -21.458185 1.222307 9.314951 -36.906073 5.451293 3.124808 6.269353 -3.147193 -0.960382 4.911224 -0.997686 0.000000 0.000000 0.000000 -1.622135 5.974016 -1.806054 -3.264003 4.154173 -0.216474 0.000000 0.000000 0.000000 -12.913580 6.061349 -2.545601 -12.433606 10.459222 -11.200475 0.467450 -12.204588 -43.439627 10.159533 -43.358775 4.215186 0.000000 0.000000 0.000000 -0.987701 5.220806 -1.269695 -2.925122 14.653155 4.608965 11.843779 10.136918 45.885054 3.351166 65.330718 4.854484 0.000000 0.000000 0.000000 
-4.364499 84.132454 1.478247 0.000000 0.000000 0.000000 -2.295777 -41.026119 5.142167 -47.431006 -3.789834 20.413291 46.553798 -6.396529 -4.041996 -3.820144 -4.788463 -16.304029 0.000000 0.000000 0.000000 12.330417 -43.445980 2.279449 -20.073945 -17.552295 -20.737192 37.393394 5.302240 1.817521 -16.329080 -0.374416 17.449832 0.000000 0.000000 0.000000 2.201138 -21.694211 1.058778 13.622157 -36.976821 8.798936 1.037406 5.654366 -3.214329 -1.134748 5.173902 -1.874841 0.000000 0.000000 0.000000 -1.600111 6.139245 -1.858113 -3.358381 4.599524 -0.173830 0.000000 0.000000 0.000000 -13.514401 5.905633 -3.070961 -14.095744 10.826501 -10.989834 -2.473786 -16.271136 -43.470186 8.946719 -46.696501 4.094552 0.000000 0.000000 0.000000 -0.702685 5.401953 -1.415811 -3.803969 13.680216 5.853824 10.892464 4.958944 46.255192 0.989806 67.342687 7.015097 0.000000 0.000000 0.000000 
-5.325671 84.370422 1.539482 0.000000 0.000000 0.000000 -1.787550 -41.252533 4.513324 -46.903654 -3.328492 19.803840 45.806660 -6.122826 -4.716586 -4.052451 -4.200484 -17.201058 0.000000 0.000000 0.000000 13.246845 -44.519286 2.613338 -19.695754 -17.967323 -21.046501 36.645840 5.580677 1.466608 -17.119036 -0.034773 16.977965 0.000000 0.000000 0.000000 3.576572 -21.264201 1.422285 9.743892 -37.317879 10.320474 2.642183 5.177199 -4.324214 -0.796674 4.701969 -1.997562 0.000000 0.000000 0.000000 -0.579943 5.954640 -1.935742 -3.405644 4.721443 -0.048786 0.000000 0.000000 0.000000 -13.714333 5.499200 -3.448141 -14.625247 11.312472 -10.989904 5.530767 -18.686335 -40.165119 12.542716 -47.567941 6.076548 0.000000 0.000000 0.000000 0.023705 5.147675 -1.407807 -2.682403 12.611389 5.439623 14.541860 4.576454 43.842875 1.100581 70.794638 7.097483 0.000000 0.000000 0.000000 
-5.520570 84.809853 1.008060 0.000000 0.000000 0.000000 -0.563390 -42.397061 5.577210 -46.262456 -3.667093 20.508094 45.277365 -6.478274 -4.956729 -4.622748 -4.376849 -17.925017 0.000000 0.000000 0.000000 13.322425 -44.744378 2.459756 -19.499295 -17.998146 -21.334239 34.191353 5.627287 1.943695 -18.819442 -0.415750 17.434823 0.000000 0.000000 0.000000 0.999074 -27.612372 1.161960 10.745869 -32.345717 2.867626 0.708317 4.691470 -3.414529 -0.957493 4.891905 -1.619955 0.000000 0.000000 0.000000 -0.957021 6.379704 -1.599032 -3.163127 4.961675 0.142591 0.000000 0.000000 0.000000 -14.421787 5.672894 -3.104575 -15.184607 11.484985 -7.762168 2.837756 -19.360934 -39.382242 12.687560 -49.893121 6.656896 0.000000 0.000000 0.000000 0.457698 5.410641 -1.239273 -2.561683 13.132267 5.904000 11.238782 4.561886 41.548239 2.039264 70.217937 5.853548 0.000000 0.000000 0.000000 
-6.821887 84.703156 0.467127 0.000000 0.000000 0.000000 -1.278968 -44.486593 5.721144 -47.562354 -4.480948 20.746826 45.219459 -6.350692 -4.745739 -4.553360 -4.292411 -17.673277 0.000000 0.000000 0.000000 13.363129 -44.615315 3.742624 -19.820883 -18.011011 -20.065033 35.835656 5.549589 2.018672 -17.750239 -0.425992 17.581207 0.000000 0.000000 0.000000 2.092447 -28.580180 2.121256 5.707015 -34.207500 -0.752940 0.602858 5.449218 -3.074152 -0.690438 4.564873 -1.382557 0.000000 0.000000 0.000000 -0.771825 6.570475 -1.592755 -3.225057 5.048422 0.111571 0.000000 0.000000 0.000000 -14.464145 5.810025 -3.342181 -15.019569 10.847295 -8.140949 6.287855 -19.549065 -35.810566 13.501924 -50.607221 7.144424 0.000000 0.000000 0.000000 0.033719 5.662833 -1.291712 -2.885790 11.793067 5.284061 10.317931 5.513442 41.619044 -0.183656 73.530367 8.308672 0.000000 0.000000 0.000000 
-6.905593 83.616226 1.148870 0.000000 0.000000 0.000000 -1.148160 -43.728644 6.609096 -47.615523 -4.691053 21.547710 45.390145 -6.353279 -4.807200 -4.463420 -4.224592 -17.912747 0.000000 0.000000 0.000000 13.329863 -45.878681 4.023170 -20.005660 -18.426607 -20.117912 36.320361 5.635196 2.159238 -17.514004 -0.371048 17.814450 0.000000 0.000000 0.000000 2.744698 -30.594972 2.683020 5.288367 -29.267087 1.556908 1.562132 4.544273 -2.845925 -1.053340 4.324879 -1.567396 0.000000 0.000000 0.000000 -0.358364 6.469460 -1.618947 -3.367840 4.964172 0.386649 0.000000 0.000000 0.000000 -15.352739 5.559517 -3.383698 -16.780265 12.508628 -6.547504 5.538363 -17.354416 -36.381549 13.163735 -53.689750 8.080687 0.000000 0.000000 0.000000 1.116526 5.519624 -1.764497 -2.788611 10.191628 5.513879 11.710216 4.035222 39.297203 -2.154856 76.238490 9.699982 0.000000 0.000000 0.000000 
-6.496076 83.460655 1.086893 0.000000 0.000000 0.000000 -1.858959 -42.797658 5.921175 -48.384295 -4.300465 21.300184 44.829752 -6.379098 -4.873419 -5.044570 -4.138559 -18.061317 0.000000 0.000000 0.000000 12.753264 -45.784517 4.188567 -20.736458 -18.333469 -19.855575 36.136847 5.311115 1.855715 -17.835499 -0.536675 17.101718 0.000000 0.000000 0.000000 3.070442 -30.157403 3.307033 1.463654 -27.091271 -1.534553 2.772936 4.783339 -3.392461 -0.358086 4.513961 -1.583663 0.000000 0.000000 0.000000 0.146766 6.764102 -1.619310 -3.166410 5.225742 0.382671 0.000000 0.000000 0.000000 -14.928536 5.361966 -3.636899 -16.370177 11.697032 -6.687069 7.235348 -18.530846 -36.397207 14.472896 -54.629181 8.329230 0.000000 0.000000 0.000000 1.454182 5.476642 -1.716730 -2.181195 10.244484 5.199064 9.232312 2.732800 39.079323 -5.110163 75.105710 12.120016 0.000000 0.000000 0.000000 
-6.740758 83.104881 1.541813 0.000000 0.000000 0.000000 -2.707456 -42.557334 5.085445 -48.929634 -4.154685 20.737120 44.709899 -6.299561 -4.916964 -5.068863 -4.049337 -18.141172 0.000000 0.000000 0.000000 11.797898 -45.938394 3.257864 -21.422883 -18.147847 -20.525810 36.011189 5.482095 1.519851 -17.993756 -0.214628 16.678436 0.000000 0.000000 0.000000 3.606718 -30.602594 3.999226 2.707812 -27.077902 -0.822402 2.823607 4.222279 -3.291321 -0.457116 4.235885 -1.530813 0.000000 0.000000 0.000000 0.509612 6.860820 -1.641560 -2.979290 5.512554 0.341280 0.000000 0.000000 0.000000 -14.892801 5.029575 -3.628168 -16.206208 11.698482 -6.796947 8.898102 -17.284499 -36.044582 14.333695 -53.703117 7.754503 0.000000 0.000000 0.000000 1.939316 5.409095 -1.668585 -1.860324 9.779934 4.464252 8.125468 1.676302 39.569653 -8.841988 77.447802 15.804615 0.000000 0.000000 0.000000 
-6.107682 82.827461 2.808741 0.000000 0.000000 0.000000 -3.383865 -42.261799 4.566894 -49.553402 -4.040636 20.484970 44.712624 -6.324108 -5.015711 -5.050962 -4.021583 -18.417960 0.000000 0.000000 0.000000 11.230322 -46.876729 2.499803 -21.960831 -18.221726 -21.475042 35.380670 5.556599 1.234223 -18.654339 -0.075513 16.207431 0.000000 0.000000 0.000000 3.285545 -28.637791 3.854304 2.057228 -25.250103 -1.120055 3.483032 4.202054 -3.810354 -0.324540 4.320229 -1.590709 0.000000 0.000000 0.000000 1.000232 6.892868 -1.609106 -2.746648 5.704961 0.419641 0.000000 0.000000 0.000000 -14.411720 4.706582 -3.643798 -16.022430 11.267374 -6.251246 6.616529 -16.965092 -35.965925 13.976662 -54.584905 7.882603 0.000000 0.000000 0.000000 2.473128 5.202914 -1.668365 -1.175914 8.966797 4.768389 8.275072 0.807911 39.389913 -12.474064 78.667544 19.244968 0.000000 0.000000 0.000000 
-5.663029 82.473274 3.345789 0.000000 0.000000 0.000000 -3.515211 -42.269688 4.801003 -49.724996 -4.207757 20.703579 44.493293 -6.276514 -4.957548 -5.207251 -3.996085 -18.397806 0.000000 0.000000 0.000000 11.249807 -45.935864 2.276341 -21.800089 -17.945475 -21.759810 34.589239 5.836525 1.164147 -19.342119 0.127108 16.178700 0.000000 0.000000 0.000000 2.873690 -28.746193 4.028136 2.605272 -21.066460 -1.435519 4.145613 4.291670 -3.712780 -0.009818 4.319545 -1.588369 0.000000 0.000000 0.000000 1.452116 7.052408 -1.462846 -2.586905 5.890826 0.525072 0.000000 0.000000 0.000000 -13.534449 4.618258 -3.701390 -15.428841 11.203725 -6.594377 10.104718 -16.148157 -36.804256 14.081827 -52.587132 6.894567 0.000000 0.000000 0.000000 3.224567 5.167769 -1.751555 -0.818139 8.826962 4.041262 7.488484 0.121320 39.430679 -14.565597 79.001554 21.288405 0.000000 0.000000 0.000000 
-5.019013 82.265434 3.465073 0.000000 0.000000 0.000000 -3.253786 -42.330948 4.630261 -49.370325 -4.056508 20.481871 44.567036 -6.216579 -5.198220 -5.143370 -3.812665 -18.859441 0.000000 0.000000 0.000000 11.351752 -45.208100 2.343663 -21.560838 -17.782377 -21.738503 34.253211 5.622274 0.762464 -19.525452 0.170158 15.430140 0.000000 0.000000 0.000000 2.151201 -27.967458 3.855405 4.126402 -21.316445 -0.672324 4.570177 4.428264 -4.036299 0.184823 4.328289 -1.738727 0.000000 0.000000 0.000000 2.007959 7.016467 -1.524762 -2.114468 5.947038 0.537450 0.000000 0.000000 0.000000 -13.089492 4.561383 -3.624717 -15.211315 10.973960 -6.004792 7.790668 -17.150837 -39.125953 13.893487 -53.900605 6.205888 0.000000 0.000000 0.000000 3.714595 4.974561 -1.812425 -0.029953 8.348205 3.662965 6.955303 0.038779 39.068026 -15.021825 78.902414 21.760983 0.000000 0.000000 0.000000 
